HIERARCHY
ROOT pelvis
{
	OFFSET 0.000000 0.000000 0.000000
	CHANNELS 6 Xposition Yposition Zposition Zrotation Yrotation Xrotation
	JOINT left_hip
	{
		OFFSET 0.055779 -0.080629 -0.017705
		CHANNELS 3 Zrotation Yrotation Xrotation
		JOINT left_knee
		{
			OFFSET 0.039469 -0.359247 0.009008
			CHANNELS 3 Zrotation Yrotation Xrotation
			JOINT left_ankle
			{
				OFFSET -0.013809 -0.389899 -0.036404
				CHANNELS 3 Zrotation Yrotation Xrotation
				JOINT left_foot
				{
					OFFSET 0.037897 -0.056346 0.116500
					CHANNELS 3 Zrotation Yrotation Xrotation
					End Site
					{
						OFFSET 0.000000 0.000000 0.000000
					}
				}
			}
		}
	}
	JOINT right_hip
	{
		OFFSET -0.057787 -0.088871 -0.013401
		CHANNELS 3 Zrotation Yrotation Xrotation
		JOINT right_knee
		{
			OFFSET -0.039496 -0.356943 -0.002206
			CHANNELS 3 Zrotation Yrotation Xrotation
			JOINT right_ankle
			{
				OFFSET 0.017959 -0.383749 -0.033094
				CHANNELS 3 Zrotation Yrotation Xrotation
				JOINT right_foot
				{
					OFFSET -0.031235 -0.058281 0.124713
					CHANNELS 3 Zrotation Yrotation Xrotation
					End Site
					{
						OFFSET 0.000000 0.000000 0.000000
					}
				}
			}
		}
	}
	JOINT spine1
	{
		OFFSET 0.004196 0.122659 -0.034271
		CHANNELS 3 Zrotation Yrotation Xrotation
		JOINT spine2
		{
			OFFSET 0.005122 0.143143 0.029537
			CHANNELS 3 Zrotation Yrotation Xrotation
			JOINT spine3
			{
				OFFSET -0.001923 0.057757 0.004628
				CHANNELS 3 Zrotation Yrotation Xrotation
				JOINT neck
				{
					OFFSET -0.013781 0.203940 -0.035143
					CHANNELS 3 Zrotation Yrotation Xrotation
					JOINT head
					{
						OFFSET 0.009065 0.086539 0.049216
						CHANNELS 3 Zrotation Yrotation Xrotation
						End Site
						{
							OFFSET 0.000000 0.000000 0.000000
						}
					}
				}
				JOINT left_collar
				{
					OFFSET 0.070315 0.109742 -0.020357
					CHANNELS 3 Zrotation Yrotation Xrotation
					JOINT left_shoulder
					{
						OFFSET 0.122280 0.043464 -0.020451
						CHANNELS 3 Zrotation Yrotation Xrotation
						JOINT left_elbow
						{
							OFFSET 0.245347 -0.013316 -0.020298
							CHANNELS 3 Zrotation Yrotation Xrotation
							JOINT left_wrist
							{
								OFFSET 0.251466 0.010925 -0.008411
								CHANNELS 3 Zrotation Yrotation Xrotation
								End Site
								{
									OFFSET 0.000000 0.000000 0.000000
								}
							}
						}
					}
				}
				JOINT right_collar
				{
					OFFSET -0.083386 0.108780 -0.024575
					CHANNELS 3 Zrotation Yrotation Xrotation
					JOINT right_shoulder
					{
						OFFSET -0.112806 0.044731 -0.008805
						CHANNELS 3 Zrotation Yrotation Xrotation
						JOINT right_elbow
						{
							OFFSET -0.248827 -0.010357 -0.028458
							CHANNELS 3 Zrotation Yrotation Xrotation
							JOINT right_wrist
							{
								OFFSET -0.255561 0.006434 -0.006231
								CHANNELS 3 Zrotation Yrotation Xrotation
								End Site
								{
									OFFSET 0.000000 0.000000 0.000000
								}
							}
						}
					}
				}
			}
		}
	}
}
MOTION
Frames: 16
Frame Time: 0.033333
-0.011323 0.490423 2.039951 -17.542700 -24.186400 15.842100 12.211555 34.129374 -86.633220 0.683284 -0.900604 80.243779 -1.678683 -12.885210 0.218132 0.000000 0.000000 0.000000 -12.708160 -5.117533 12.592816 1.424027 2.265868 30.204675 1.969761 -31.366747 -18.487985 0.000000 0.000000 0.000000 11.671794 4.015327 5.672359 0.000000 0.000000 0.000000 1.476183 1.007700 -7.438367 0.906205 6.154199 12.640442 0.457332 12.648375 -25.520197 0.000000 0.000000 0.000000 0.850451 -66.126701 -66.089225 8.117414 -13.128589 -2.805792 -4.944401 -7.396960 67.479372 0.000000 0.000000 0.000000 58.949881 -35.878870 62.506189 -116.568402 47.009914 -89.425414 4.305363 -7.100669 -62.418026
-0.011830 0.488772 2.041882 -17.506000 -24.289000 15.833800 12.149361 34.270252 -86.823881 0.696940 -0.911062 80.630597 -1.665049 -12.756084 -0.092621 0.000000 0.000000 0.000000 -12.814155 -4.893810 12.678384 1.441974 2.279804 30.260756 1.993571 -31.281061 -18.770020 0.000000 0.000000 0.000000 11.602148 4.113226 5.609605 0.000000 0.000000 0.000000 1.512443 1.033484 -7.403201 1.001202 6.138098 12.469728 0.251123 12.557510 -25.424599 0.000000 0.000000 0.000000 0.788125 -66.133534 -66.013127 8.096624 -13.102176 -2.800428 -4.958394 -7.402714 67.588592 0.000000 0.000000 0.000000 59.121761 -36.020644 62.294583 -116.658213 46.974960 -89.499518 4.281729 -7.088387 -62.226795
-0.012143 0.487012 2.043489 -17.555900 -24.176200 15.996300 12.145336 34.209979 -87.258715 0.697360 -0.923535 81.064816 -1.644424 -12.565770 -0.352246 0.000000 0.000000 0.000000 -12.715377 -4.695076 12.957934 1.433528 2.292897 29.865938 2.015932 -31.355892 -18.815588 0.000000 0.000000 0.000000 11.706231 3.980192 5.311457 0.000000 0.000000 0.000000 1.521289 0.985918 -7.334762 0.979998 6.185603 12.457984 0.304876 12.670063 -25.490060 0.000000 0.000000 0.000000 0.856281 -66.017879 -66.173828 8.034030 -13.006737 -2.785634 -4.974622 -7.409331 67.714121 0.000000 0.000000 0.000000 59.063283 -35.987004 62.392644 -116.700989 46.957937 -89.534941 4.261820 -7.077947 -62.065297
-0.012317 0.485792 2.044637 -17.594500 -24.223500 16.087900 12.173261 34.267537 -87.492100 0.694673 -0.933082 81.389933 -1.632916 -12.456856 -0.491468 0.000000 0.000000 0.000000 -12.615118 -4.419910 13.136965 1.425576 2.300205 29.579300 2.022675 -31.638384 -18.695937 0.000000 0.000000 0.000000 11.713806 3.943305 5.203242 0.000000 0.000000 0.000000 1.596360 0.978232 -7.428569 0.942096 6.184852 12.555763 0.321201 12.677427 -25.506412 0.000000 0.000000 0.000000 0.728000 -65.883080 -65.585605 8.072697 -13.065471 -2.795227 -4.950185 -7.399380 67.525011 0.000000 0.000000 0.000000 58.920135 -35.933633 62.559944 -116.704899 46.956662 -89.538174 4.255026 -7.074345 -62.010560
-0.012486 0.484659 2.045764 -17.704100 -24.339600 16.198000 12.214700 34.452835 -87.690709 0.700939 -0.942265 81.712221 -1.634135 -12.418972 -0.672276 0.000000 0.000000 0.000000 -12.683179 -4.405726 13.020347 1.439216 2.308677 29.734260 2.042683 -31.482581 -18.901296 0.000000 0.000000 0.000000 11.828960 3.984364 5.106505 0.000000 0.000000 0.000000 1.601078 0.988080 -7.446714 0.914005 6.187399 12.608547 0.335544 12.685687 -25.436186 0.000000 0.000000 0.000000 0.564327 -65.800489 -65.341704 8.063950 -13.052204 -2.793475 -4.946417 -7.397794 67.495472 0.000000 0.000000 0.000000 58.826496 -35.822393 62.661978 -116.576006 47.006871 -89.431590 4.261945 -7.078002 -62.066344
-0.012193 0.483689 2.046630 -17.647700 -24.323600 16.279300 12.006632 34.526427 -87.975060 0.713073 -0.948707 81.943299 -1.639317 -12.483823 -0.799498 0.000000 0.000000 0.000000 -12.883297 -4.580924 12.950686 1.450848 2.316751 29.814934 2.055460 -31.340185 -19.028304 0.000000 0.000000 0.000000 11.701526 3.868743 5.056122 0.000000 0.000000 0.000000 1.672477 0.955686 -7.444601 1.036306 6.223300 12.274149 0.330672 12.732433 -25.075598 0.000000 0.000000 0.000000 0.751020 -65.661722 -65.642988 8.007245 -12.967145 -2.769991 -4.945163 -7.397278 67.485701 0.000000 0.000000 0.000000 58.880365 -35.556762 62.720843 -116.501377 47.036773 -89.369889 4.266438 -7.080372 -62.103110
-0.011880 0.483050 2.047736 -17.524800 -24.388700 16.252700 11.756703 34.673413 -88.104695 0.725362 -0.953896 82.134168 -1.641949 -12.602374 -0.935513 0.000000 0.000000 0.000000 -13.090193 -4.597047 13.020620 1.448194 2.320764 29.737142 2.061635 -31.346460 -19.058649 0.000000 0.000000 0.000000 11.557607 3.953392 5.076411 0.000000 0.000000 0.000000 1.638951 0.977978 -7.448311 1.085195 6.191800 12.018951 0.394743 12.665677 -24.793998 0.000000 0.000000 0.000000 0.885331 -65.731730 -65.766347 7.980917 -12.927175 -2.761635 -4.973724 -7.408968 67.707134 0.000000 0.000000 0.000000 59.195565 -35.565846 62.457970 -116.511443 47.038459 -89.378336 4.243650 -7.068337 -61.918044
-0.011721 0.482350 2.048770 -17.544400 -24.414500 16.367100 11.613002 34.813847 -88.352322 0.732639 -0.961254 82.363103 -1.643914 -12.692650 -1.072133 0.000000 0.000000 0.000000 -13.157157 -4.627199 13.039646 1.445096 2.324940 29.600990 2.067839 -31.314646 -19.037690 0.000000 0.000000 0.000000 11.666616 4.010650 4.949200 0.000000 0.000000 0.000000 1.551485 0.986856 -7.481716 1.090605 6.189896 11.992144 0.401756 12.659428 -24.717841 0.000000 0.000000 0.000000 0.738093 -65.733564 -65.204215 8.027966 -12.998232 -2.777512 -4.915695 -7.385095 67.256180 0.000000 0.000000 0.000000 59.334533 -35.645244 62.364592 -116.466971 47.049078 -89.341576 4.221897 -7.056781 -61.741268
-0.011456 0.482091 2.049782 -17.548200 -24.395000 16.479300 11.536282 34.799761 -88.481529 0.727586 -0.964333 82.487084 -1.637986 -12.631936 -1.195901 0.000000 0.000000 0.000000 -13.177723 -4.661772 13.097897 1.432866 2.323863 29.351795 2.075868 -31.232965 -19.013569 0.000000 0.000000 0.000000 11.826730 4.149973 4.802140 0.000000 0.000000 0.000000 1.477272 1.022066 -7.628261 1.003603 6.151350 12.168325 0.455201 12.595476 -24.684060 0.000000 0.000000 0.000000 0.235364 -65.860117 -64.168036 8.061324 -13.053401 -2.793684 -4.891510 -7.375001 67.067956 0.000000 0.000000 0.000000 59.372702 -35.887154 62.320675 -116.447876 47.052583 -89.332684 4.224952 -7.058402 -61.765725
-0.010936 0.481672 2.050450 -17.452900 -24.486900 16.476400 11.399835 34.822664 -88.548102 0.727441 -0.967990 82.613911 -1.632299 -12.540269 -1.300879 0.000000 0.000000 0.000000 -13.332608 -4.580517 13.051819 1.437643 2.328619 29.381036 2.077812 -31.282401 -19.051373 0.000000 0.000000 0.000000 11.761929 4.228601 4.846735 0.000000 0.000000 0.000000 1.471593 1.045222 -7.712151 0.971700 6.158011 12.204396 0.487237 12.626301 -24.726265 0.000000 0.000000 0.000000 0.069442 -65.835671 -64.017314 8.056678 -13.047680 -2.796186 -4.929849 -7.390984 67.366987 0.000000 0.000000 0.000000 59.344703 -35.857322 62.408754 -116.454203 47.052989 -89.333212 4.203569 -7.046981 -61.591552
-0.010646 0.481078 2.050867 -17.341400 -24.636400 16.454300 11.256902 34.875564 -88.611347 0.728499 -0.972801 82.752551 -1.633033 -12.456551 -1.369699 0.000000 0.000000 0.000000 -13.539843 -4.467824 12.956353 1.449134 2.334347 29.505803 2.083941 -31.316442 -19.083853 0.000000 0.000000 0.000000 11.644499 4.289097 4.895253 0.000000 0.000000 0.000000 1.474470 1.060847 -7.713060 0.974704 6.147599 12.251740 0.493271 12.608285 -24.795676 0.000000 0.000000 0.000000 0.081861 -65.731002 -64.224396 8.052065 -13.029909 -2.795266 -4.951528 -7.399915 67.534684 0.000000 0.000000 0.000000 59.238924 -35.696447 62.594017 -116.440448 47.059141 -89.319633 4.160783 -7.023836 -61.242511
-0.010465 0.480732 2.051306 -17.300100 -24.716700 16.509300 11.211193 34.864123 -88.675218 0.721536 -0.975234 82.845923 -1.623736 -12.317434 -1.438735 0.000000 0.000000 0.000000 -13.654347 -4.448846 12.938658 1.445949 2.336762 29.435682 2.085217 -31.297701 -19.005600 0.000000 0.000000 0.000000 11.602017 4.315636 4.844479 0.000000 0.000000 0.000000 1.494215 1.068425 -7.737744 1.060196 6.093902 12.296361 0.423951 12.474516 -24.683230 0.000000 0.000000 0.000000 -0.096523 -65.604567 -64.007546 8.067074 -13.056333 -2.799651 -4.982727 -7.412643 67.777450 0.000000 0.000000 0.000000 59.097102 -35.602235 62.794416 -116.423932 47.065789 -89.305929 4.155212 -7.020795 -61.197031
-0.010344 0.480466 2.051671 -17.274100 -24.795500 16.569900 11.131419 34.926077 -88.775848 0.720934 -0.978917 82.935965 -1.617666 -12.251027 -1.518283 0.000000 0.000000 0.000000 -13.744397 -4.438290 12.892825 1.448219 2.340314 29.399824 2.090574 -31.292812 -18.986507 0.000000 0.000000 0.000000 11.553158 4.343664 4.760204 0.000000 0.000000 0.000000 1.518454 1.075993 -7.784951 1.141900 6.070887 12.360305 0.385038 12.407932 -24.494578 0.000000 0.000000 0.000000 -0.367032 -65.485057 -63.386320 8.080144 -13.076284 -2.802208 -4.915318 -7.384940 67.253074 0.000000 0.000000 0.000000 59.080127 -35.603030 62.802957 -116.347854 47.095151 -89.242905 4.152356 -7.019238 -61.173357
-0.010264 0.480232 2.051921 -17.282800 -24.871400 16.634900 11.104542 35.001716 -88.815375 0.720058 -0.979674 82.984029 -1.617444 -12.239021 -1.573686 0.000000 0.000000 0.000000 -13.782865 -4.436759 12.822978 1.445626 2.338952 29.393086 2.093631 -31.276460 -18.988793 0.000000 0.000000 0.000000 11.527401 4.368750 4.721871 0.000000 0.000000 0.000000 1.498917 1.081096 -7.788555 1.187398 6.078774 12.291483 0.402329 12.419003 -24.341776 0.000000 0.000000 0.000000 -0.417346 -65.374088 -63.210376 8.052853 -13.034705 -2.795177 -4.915700 -7.385104 67.256289 0.000000 0.000000 0.000000 59.231473 -35.583643 62.623282 -116.288240 47.117729 -89.193515 4.146357 -7.015978 -61.124226
-0.010207 0.479954 2.052078 -17.261300 -24.871500 16.644300 11.052483 35.006346 -88.893412 0.723222 -0.979945 83.032135 -1.618938 -12.250835 -1.570666 0.000000 0.000000 0.000000 -13.818549 -4.439351 12.754106 1.453510 2.341736 29.501469 2.094995 -31.277171 -19.067037 0.000000 0.000000 0.000000 11.505788 4.317245 4.755234 0.000000 0.000000 0.000000 1.469847 1.064964 -7.840133 1.238901 6.093900 12.236809 0.319192 12.424643 -24.245425 0.000000 0.000000 0.000000 -0.575078 -65.231207 -62.771577 8.083417 -13.081390 -2.801147 -4.926577 -7.389595 67.340914 0.000000 0.000000 0.000000 59.325542 -35.573697 62.600120 -116.331413 47.101485 -89.229389 4.137482 -7.011088 -61.051526
-0.010170 0.479631 2.052297 -17.254400 -24.857500 16.684400 11.054504 34.969676 -88.939723 0.719281 -0.980526 83.087563 -1.614620 -12.202726 -1.609842 0.000000 0.000000 0.000000 -13.810135 -4.417663 12.804485 1.447719 2.342040 29.388452 2.095770 -31.306020 -19.012455 0.000000 0.000000 0.000000 11.517427 4.245842 4.694352 0.000000 0.000000 0.000000 1.434179 1.041213 -7.854035 1.315306 6.111599 12.158149 0.235944 12.430874 -24.086584 0.000000 0.000000 0.000000 -0.767318 -65.102112 -62.548535 8.085007 -13.084090 -2.800890 -4.899392 -7.378311 67.129885 0.000000 0.000000 0.000000 59.360758 -35.559379 62.650049 -116.356709 47.091741 -89.250312 4.102896 -6.992006 -60.767904
